<mxfile host="app.diagrams.net" agent="Mozilla/5.0 (Windows NT 10.0; Win64; x64) AppleWebKit/537.36 (KHTML, like Gecko) Chrome/128.0.0.0 Safari/537.36 Edg/128.0.0.0" version="24.7.8">
  <diagram name="Page-1" id="b7Gk_bNDeWFmBbh089bi">
    <mxGraphModel dx="1426" dy="783" grid="1" gridSize="10" guides="1" tooltips="1" connect="1" arrows="1" fold="1" page="1" pageScale="1" pageWidth="850" pageHeight="1100" math="0" shadow="0">
      <root>
        <mxCell id="0" />
        <mxCell id="1" parent="0" />
        <mxCell id="Cx4aMy2B_LeO8EEixPeX-16" style="edgeStyle=orthogonalEdgeStyle;rounded=0;orthogonalLoop=1;jettySize=auto;html=1;exitX=0.5;exitY=1;exitDx=0;exitDy=0;" parent="1" source="Cx4aMy2B_LeO8EEixPeX-1" edge="1">
          <mxGeometry relative="1" as="geometry">
            <mxPoint x="420" y="150" as="targetPoint" />
          </mxGeometry>
        </mxCell>
        <mxCell id="Cx4aMy2B_LeO8EEixPeX-1" value="START" style="ellipse;whiteSpace=wrap;html=1;" parent="1" vertex="1">
          <mxGeometry x="360" y="1" width="120" height="80" as="geometry" />
        </mxCell>
        <mxCell id="Cx4aMy2B_LeO8EEixPeX-2" value="END" style="ellipse;whiteSpace=wrap;html=1;" parent="1" vertex="1">
          <mxGeometry x="365" y="860" width="120" height="80" as="geometry" />
        </mxCell>
        <mxCell id="Cx4aMy2B_LeO8EEixPeX-27" value="x" style="shape=document;whiteSpace=wrap;html=1;boundedLbl=1;" parent="1" vertex="1">
          <mxGeometry x="360" y="321" width="120" height="80" as="geometry" />
        </mxCell>
        <mxCell id="Cx4aMy2B_LeO8EEixPeX-28" style="edgeStyle=orthogonalEdgeStyle;rounded=0;orthogonalLoop=1;jettySize=auto;html=1;exitX=0.5;exitY=1;exitDx=0;exitDy=0;" parent="1" edge="1">
          <mxGeometry relative="1" as="geometry">
            <mxPoint x="425" y="400" as="sourcePoint" />
            <mxPoint x="425" y="480" as="targetPoint" />
          </mxGeometry>
        </mxCell>
        <mxCell id="Cx4aMy2B_LeO8EEixPeX-29" style="edgeStyle=orthogonalEdgeStyle;rounded=0;orthogonalLoop=1;jettySize=auto;html=1;" parent="1" edge="1">
          <mxGeometry relative="1" as="geometry">
            <mxPoint x="430" y="664" as="targetPoint" />
            <mxPoint x="430" y="564" as="sourcePoint" />
          </mxGeometry>
        </mxCell>
        <mxCell id="Cx4aMy2B_LeO8EEixPeX-31" value="x" style="shape=document;whiteSpace=wrap;html=1;boundedLbl=1;" parent="1" vertex="1">
          <mxGeometry x="360" y="490" width="120" height="80" as="geometry" />
        </mxCell>
        <mxCell id="Cx4aMy2B_LeO8EEixPeX-34" style="edgeStyle=orthogonalEdgeStyle;rounded=0;orthogonalLoop=1;jettySize=auto;html=1;" parent="1" edge="1">
          <mxGeometry relative="1" as="geometry">
            <mxPoint x="425" y="850" as="targetPoint" />
            <mxPoint x="425" y="750" as="sourcePoint" />
            <Array as="points">
              <mxPoint x="425" y="800" />
              <mxPoint x="425" y="800" />
            </Array>
          </mxGeometry>
        </mxCell>
        <mxCell id="vTByLn9acEBYYDVvpnNm-1" value="x = int (&quot;How many beers you order?&quot;)" style="shape=parallelogram;perimeter=parallelogramPerimeter;whiteSpace=wrap;html=1;fixedSize=1;" vertex="1" parent="1">
          <mxGeometry x="270" y="160" width="360" height="60" as="geometry" />
        </mxCell>
        <mxCell id="vTByLn9acEBYYDVvpnNm-2" value="x" style="shape=document;whiteSpace=wrap;html=1;boundedLbl=1;" vertex="1" parent="1">
          <mxGeometry x="365" y="670" width="120" height="80" as="geometry" />
        </mxCell>
        <mxCell id="vTByLn9acEBYYDVvpnNm-3" style="edgeStyle=orthogonalEdgeStyle;rounded=0;orthogonalLoop=1;jettySize=auto;html=1;exitX=0.5;exitY=1;exitDx=0;exitDy=0;" edge="1" parent="1">
          <mxGeometry relative="1" as="geometry">
            <mxPoint x="423" y="295" as="targetPoint" />
            <mxPoint x="423" y="226" as="sourcePoint" />
          </mxGeometry>
        </mxCell>
      </root>
    </mxGraphModel>
  </diagram>
</mxfile>
